  0
SECTION
  2
HEADER
  9
$EXTMIN
 10
-0.112000
 20
-0.104000
  9
$EXTMAX
 10
0.605000
 20
0.505000
  9
$LIMMIN
 10
-0.112000
 20
-0.104000
  9
$LIMMAX
 10
0.605000
 20
0.505000
  9
$FILLMODE
 70
  1
  0
ENDSEC
  0
SECTION
  2
TABLES
  0
TABLE
  2
LTYPE
 70
  1
  0
LTYPE
  2
CONTINUOUS
 70
 64
  3
Solid line
 72
 65
 73
  0
 40
0.0
  0
ENDTAB
  0
TABLE
  2
LAYER
 70
 1
  0
LAYER
  2
0
 70
  0
 62
7
  6
CONTINUOUS
  0
LAYER
  2
gg1
 70
  0
 62
1
  6
CONTINUOUS
  0
ENDTAB
  0
TABLE
  2
STYLE
 70
  1
  0
STYLE
  2
STANDARD
 70
  0
 40
0.0
 41
1.0
 50
0.0
 71
  0
 42
0.2
  3
txt
  4

  0
ENDTAB
  0
ENDSEC
  0
SECTION
  2
BLOCKS
  0
BLOCK
  8
0
  2
D10
 70
64
 10
0.0
 20
0.0
  3
D10
  0
CIRCLE
  8
0
 10
0.000000
 20
0.000000
 40
0.005000
 0
ENDBLK
  8
0
  0
BLOCK
  8
0
  2
D11
 70
64
 10
0.0
 20
0.0
  3
D11
  0
CIRCLE
  8
0
 10
0.000000
 20
0.000000
 40
0.002500
 0
ENDBLK
  8
0
  0
BLOCK
  8
0
  2
D12
 70
64
 10
0.0
 20
0.0
  3
D12
  0
CIRCLE
  8
0
 10
0.000000
 20
0.000000
 40
0.003000
 0
ENDBLK
  8
0
  0
ENDSEC
  0
SECTION
  2
ENTITIES
  0
POLYLINE
  8
gg1
 62
1
 40
0.000000
 41
0.000000
 66
  1
  0
VERTEX
  8
gg1
 10
-0.095000
 20
0.000000
  0
VERTEX
  8
gg1
 10
-0.012500
 20
0.000000
  0
SEQEND
  8
gg1
  0
POLYLINE
  8
gg1
 62
1
 40
0.000000
 41
0.000000
 66
  1
  0
VERTEX
  8
gg1
 10
-0.095000
 20
0.500000
  0
VERTEX
  8
gg1
 10
-0.012500
 20
0.500000
  0
SEQEND
  8
gg1
  0
POLYLINE
  8
gg1
 62
1
 40
0.000000
 41
0.000000
 66
  1
  0
VERTEX
  8
gg1
 10
-0.085000
 20
0.000000
  0
VERTEX
  8
gg1
 10
-0.085000
 20
0.063100
  0
SEQEND
  8
gg1
  0
POLYLINE
  8
gg1
 62
1
 40
0.000000
 41
0.000000
 66
  1
  0
VERTEX
  8
gg1
 10
-0.085000
 20
0.404900
  0
VERTEX
  8
gg1
 10
-0.085000
 20
0.500000
  0
SEQEND
  8
gg1
  0
POLYLINE
  8
gg1
 62
1
 40
0.000000
 41
0.000000
 66
  1
  0
VERTEX
  8
gg1
 10
-0.085000
 20
0.000000
  0
VERTEX
  8
gg1
 10
-0.065000
 20
0.060000
  0
SEQEND
  8
gg1
  0
POLYLINE
  8
gg1
 62
1
 40
0.000000
 41
0.000000
 66
  1
  0
VERTEX
  8
gg1
 10
-0.105000
 20
0.060000
  0
VERTEX
  8
gg1
 10
-0.085000
 20
0.000000
  0
SEQEND
  8
gg1
  0
POLYLINE
  8
gg1
 62
1
 40
0.000000
 41
0.000000
 66
  1
  0
VERTEX
  8
gg1
 10
-0.105000
 20
0.440000
  0
VERTEX
  8
gg1
 10
-0.085000
 20
0.500000
  0
VERTEX
  8
gg1
 10
-0.065000
 20
0.440000
  0
SEQEND
  8
gg1
  0
POLYLINE
  8
gg1
 62
1
 40
0.000000
 41
0.000000
 66
  1
  0
VERTEX
  8
gg1
 10
0.600000
 20
-0.075000
  0
VERTEX
  8
gg1
 10
0.600000
 20
-0.012500
  0
SEQEND
  8
gg1
  0
POLYLINE
  8
gg1
 62
1
 40
0.000000
 41
0.000000
 66
  1
  0
VERTEX
  8
gg1
 10
0.000000
 20
-0.075000
  0
VERTEX
  8
gg1
 10
0.000000
 20
-0.012500
  0
SEQEND
  8
gg1
  0
POLYLINE
  8
gg1
 62
1
 40
0.000000
 41
0.000000
 66
  1
  0
VERTEX
  8
gg1
 10
0.455000
 20
-0.065000
  0
VERTEX
  8
gg1
 10
0.600000
 20
-0.065000
  0
SEQEND
  8
gg1
  0
POLYLINE
  8
gg1
 62
1
 40
0.000000
 41
0.000000
 66
  1
  0
VERTEX
  8
gg1
 10
0.000000
 20
-0.065000
  0
VERTEX
  8
gg1
 10
0.113000
 20
-0.065000
  0
SEQEND
  8
gg1
  0
POLYLINE
  8
gg1
 62
1
 40
0.000000
 41
0.000000
 66
  1
  0
VERTEX
  8
gg1
 10
0.540000
 20
-0.045000
  0
VERTEX
  8
gg1
 10
0.600000
 20
-0.065000
  0
SEQEND
  8
gg1
  0
POLYLINE
  8
gg1
 62
1
 40
0.000000
 41
0.000000
 66
  1
  0
VERTEX
  8
gg1
 10
0.540000
 20
-0.085000
  0
VERTEX
  8
gg1
 10
0.600000
 20
-0.065000
  0
SEQEND
  8
gg1
  0
POLYLINE
  8
gg1
 62
1
 40
0.000000
 41
0.000000
 66
  1
  0
VERTEX
  8
gg1
 10
0.000000
 20
-0.065000
  0
VERTEX
  8
gg1
 10
0.060000
 20
-0.085000
  0
SEQEND
  8
gg1
  0
POLYLINE
  8
gg1
 62
1
 40
0.000000
 41
0.000000
 66
  1
  0
VERTEX
  8
gg1
 10
0.000000
 20
-0.065000
  0
VERTEX
  8
gg1
 10
0.060000
 20
-0.045000
  0
SEQEND
  8
gg1
  0
POLYLINE
  8
gg1
 62
1
 40
0.000000
 41
0.000000
 66
  1
  0
VERTEX
  8
gg1
 10
0.000000
 20
0.000000
  0
VERTEX
  8
gg1
 10
0.000000
 20
0.500000
  0
SEQEND
  8
gg1
  0
POLYLINE
  8
gg1
 62
1
 40
0.000000
 41
0.000000
 66
  1
  0
VERTEX
  8
gg1
 10
0.000000
 20
0.000000
  0
VERTEX
  8
gg1
 10
0.600000
 20
0.000000
  0
VERTEX
  8
gg1
 10
0.600000
 20
0.500000
  0
SEQEND
  8
gg1
  0
POLYLINE
  8
gg1
 62
1
 40
0.000000
 41
0.000000
 66
  1
  0
VERTEX
  8
gg1
 10
0.000000
 20
0.500000
  0
VERTEX
  8
gg1
 10
0.600000
 20
0.500000
  0
SEQEND
  8
gg1
  0
POLYLINE
  8
gg1
 62
1
 40
0.000000
 41
0.000000
 66
  1
  0
VERTEX
  8
gg1
 10
0.195000
 20
0.108000
  0
VERTEX
  8
gg1
 10
0.215000
 20
0.108000
  0
SEQEND
  8
gg1
  0
POLYLINE
  8
gg1
 62
1
 40
0.000000
 41
0.000000
 66
  1
  0
VERTEX
  8
gg1
 10
0.205000
 20
0.098000
  0
VERTEX
  8
gg1
 10
0.205000
 20
0.118000
  0
SEQEND
  8
gg1
  0
POLYLINE
  8
gg1
 62
1
 40
0.000000
 41
0.000000
 66
  1
  0
VERTEX
  8
gg1
 10
0.530000
 20
0.450000
  0
VERTEX
  8
gg1
 10
0.570000
 20
0.450000
  0
SEQEND
  8
gg1
  0
POLYLINE
  8
gg1
 62
1
 40
0.000000
 41
0.000000
 66
  1
  0
VERTEX
  8
gg1
 10
0.550000
 20
0.430000
  0
VERTEX
  8
gg1
 10
0.550000
 20
0.470000
  0
SEQEND
  8
gg1
  0
POLYLINE
  8
gg1
 62
1
 40
0.000000
 41
0.000000
 66
  1
  0
VERTEX
  8
gg1
 10
0.530000
 20
0.350000
  0
VERTEX
  8
gg1
 10
0.570000
 20
0.350000
  0
SEQEND
  8
gg1
  0
POLYLINE
  8
gg1
 62
1
 40
0.000000
 41
0.000000
 66
  1
  0
VERTEX
  8
gg1
 10
0.550000
 20
0.330000
  0
VERTEX
  8
gg1
 10
0.550000
 20
0.370000
  0
SEQEND
  8
gg1
  0
POLYLINE
  8
gg1
 62
1
 40
0.000000
 41
0.000000
 66
  1
  0
VERTEX
  8
gg1
 10
0.530000
 20
0.250000
  0
VERTEX
  8
gg1
 10
0.570000
 20
0.250000
  0
SEQEND
  8
gg1
  0
POLYLINE
  8
gg1
 62
1
 40
0.000000
 41
0.000000
 66
  1
  0
VERTEX
  8
gg1
 10
0.550000
 20
0.230000
  0
VERTEX
  8
gg1
 10
0.550000
 20
0.270000
  0
SEQEND
  8
gg1
  0
POLYLINE
  8
gg1
 62
1
 40
0.000000
 41
0.000000
 66
  1
  0
VERTEX
  8
gg1
 10
0.530000
 20
0.150000
  0
VERTEX
  8
gg1
 10
0.570000
 20
0.150000
  0
SEQEND
  8
gg1
  0
POLYLINE
  8
gg1
 62
1
 40
0.000000
 41
0.000000
 66
  1
  0
VERTEX
  8
gg1
 10
0.550000
 20
0.130000
  0
VERTEX
  8
gg1
 10
0.550000
 20
0.170000
  0
SEQEND
  8
gg1
  0
POLYLINE
  8
gg1
 62
1
 40
0.000000
 41
0.000000
 66
  1
  0
VERTEX
  8
gg1
 10
0.530000
 20
0.050000
  0
VERTEX
  8
gg1
 10
0.570000
 20
0.050000
  0
SEQEND
  8
gg1
  0
POLYLINE
  8
gg1
 62
1
 40
0.000000
 41
0.000000
 66
  1
  0
VERTEX
  8
gg1
 10
0.550000
 20
0.030000
  0
VERTEX
  8
gg1
 10
0.550000
 20
0.070000
  0
SEQEND
  8
gg1
  0
POLYLINE
  8
gg1
 62
1
 40
0.000000
 41
0.000000
 66
  1
  0
VERTEX
  8
gg1
 10
0.030000
 20
0.450000
  0
VERTEX
  8
gg1
 10
0.070000
 20
0.450000
  0
SEQEND
  8
gg1
  0
POLYLINE
  8
gg1
 62
1
 40
0.000000
 41
0.000000
 66
  1
  0
VERTEX
  8
gg1
 10
0.050000
 20
0.430000
  0
VERTEX
  8
gg1
 10
0.050000
 20
0.470000
  0
SEQEND
  8
gg1
  0
POLYLINE
  8
gg1
 62
1
 40
0.000000
 41
0.000000
 66
  1
  0
VERTEX
  8
gg1
 10
0.030000
 20
0.350000
  0
VERTEX
  8
gg1
 10
0.070000
 20
0.350000
  0
SEQEND
  8
gg1
  0
POLYLINE
  8
gg1
 62
1
 40
0.000000
 41
0.000000
 66
  1
  0
VERTEX
  8
gg1
 10
0.050000
 20
0.330000
  0
VERTEX
  8
gg1
 10
0.050000
 20
0.370000
  0
SEQEND
  8
gg1
  0
POLYLINE
  8
gg1
 62
1
 40
0.000000
 41
0.000000
 66
  1
  0
VERTEX
  8
gg1
 10
0.030000
 20
0.250000
  0
VERTEX
  8
gg1
 10
0.070000
 20
0.250000
  0
SEQEND
  8
gg1
  0
POLYLINE
  8
gg1
 62
1
 40
0.000000
 41
0.000000
 66
  1
  0
VERTEX
  8
gg1
 10
0.050000
 20
0.230000
  0
VERTEX
  8
gg1
 10
0.050000
 20
0.270000
  0
SEQEND
  8
gg1
  0
POLYLINE
  8
gg1
 62
1
 40
0.000000
 41
0.000000
 66
  1
  0
VERTEX
  8
gg1
 10
0.030000
 20
0.150000
  0
VERTEX
  8
gg1
 10
0.070000
 20
0.150000
  0
SEQEND
  8
gg1
  0
POLYLINE
  8
gg1
 62
1
 40
0.000000
 41
0.000000
 66
  1
  0
VERTEX
  8
gg1
 10
0.050000
 20
0.130000
  0
VERTEX
  8
gg1
 10
0.050000
 20
0.170000
  0
SEQEND
  8
gg1
  0
POLYLINE
  8
gg1
 62
1
 40
0.000000
 41
0.000000
 66
  1
  0
VERTEX
  8
gg1
 10
0.030000
 20
0.050000
  0
VERTEX
  8
gg1
 10
0.070000
 20
0.050000
  0
SEQEND
  8
gg1
  0
POLYLINE
  8
gg1
 62
1
 40
0.000000
 41
0.000000
 66
  1
  0
VERTEX
  8
gg1
 10
0.050000
 20
0.030000
  0
VERTEX
  8
gg1
 10
0.050000
 20
0.070000
  0
SEQEND
  8
gg1
  0
POLYLINE
  8
gg1
 62
1
 40
0.000000
 41
0.000000
 66
  1
  0
VERTEX
  8
gg1
 10
0.393500
 20
0.340000
  0
VERTEX
  8
gg1
 10
0.408500
 20
0.340000
  0
SEQEND
  8
gg1
  0
POLYLINE
  8
gg1
 62
1
 40
0.000000
 41
0.000000
 66
  1
  0
VERTEX
  8
gg1
 10
0.401000
 20
0.332500
  0
VERTEX
  8
gg1
 10
0.401000
 20
0.347500
  0
SEQEND
  8
gg1
  0
POLYLINE
  8
gg1
 62
1
 40
0.000000
 41
0.000000
 66
  1
  0
VERTEX
  8
gg1
 10
0.114500
 20
0.455000
  0
VERTEX
  8
gg1
 10
0.129500
 20
0.455000
  0
SEQEND
  8
gg1
  0
POLYLINE
  8
gg1
 62
1
 40
0.000000
 41
0.000000
 66
  1
  0
VERTEX
  8
gg1
 10
0.122000
 20
0.447500
  0
VERTEX
  8
gg1
 10
0.122000
 20
0.462500
  0
SEQEND
  8
gg1
  0
POLYLINE
  8
gg1
 62
1
 40
0.000000
 41
0.000000
 66
  1
  0
VERTEX
  8
gg1
 10
0.145500
 20
0.454000
  0
VERTEX
  8
gg1
 10
0.160500
 20
0.454000
  0
SEQEND
  8
gg1
  0
POLYLINE
  8
gg1
 62
1
 40
0.000000
 41
0.000000
 66
  1
  0
VERTEX
  8
gg1
 10
0.153000
 20
0.446500
  0
VERTEX
  8
gg1
 10
0.153000
 20
0.461500
  0
SEQEND
  8
gg1
  0
POLYLINE
  8
gg1
 62
1
 40
0.000000
 41
0.000000
 66
  1
  0
VERTEX
  8
gg1
 10
0.231600
 20
0.315000
  0
VERTEX
  8
gg1
 10
0.246600
 20
0.315000
  0
SEQEND
  8
gg1
  0
POLYLINE
  8
gg1
 62
1
 40
0.000000
 41
0.000000
 66
  1
  0
VERTEX
  8
gg1
 10
0.239100
 20
0.307500
  0
VERTEX
  8
gg1
 10
0.239100
 20
0.322500
  0
SEQEND
  8
gg1
  0
POLYLINE
  8
gg1
 62
1
 40
0.000000
 41
0.000000
 66
  1
  0
VERTEX
  8
gg1
 10
0.265100
 20
0.297300
  0
VERTEX
  8
gg1
 10
0.280100
 20
0.297300
  0
SEQEND
  8
gg1
  0
POLYLINE
  8
gg1
 62
1
 40
0.000000
 41
0.000000
 66
  1
  0
VERTEX
  8
gg1
 10
0.272600
 20
0.289800
  0
VERTEX
  8
gg1
 10
0.272600
 20
0.304800
  0
SEQEND
  8
gg1
  0
POLYLINE
  8
gg1
 62
1
 40
0.000000
 41
0.000000
 66
  1
  0
VERTEX
  8
gg1
 10
0.265100
 20
0.332700
  0
VERTEX
  8
gg1
 10
0.280100
 20
0.332700
  0
SEQEND
  8
gg1
  0
POLYLINE
  8
gg1
 62
1
 40
0.000000
 41
0.000000
 66
  1
  0
VERTEX
  8
gg1
 10
0.272600
 20
0.325200
  0
VERTEX
  8
gg1
 10
0.272600
 20
0.340200
  0
SEQEND
  8
gg1
  0
POLYLINE
  8
gg1
 62
1
 40
0.000000
 41
0.000000
 66
  1
  0
VERTEX
  8
gg1
 10
0.198200
 20
0.332700
  0
VERTEX
  8
gg1
 10
0.213200
 20
0.332700
  0
SEQEND
  8
gg1
  0
POLYLINE
  8
gg1
 62
1
 40
0.000000
 41
0.000000
 66
  1
  0
VERTEX
  8
gg1
 10
0.205700
 20
0.325200
  0
VERTEX
  8
gg1
 10
0.205700
 20
0.340200
  0
SEQEND
  8
gg1
  0
POLYLINE
  8
gg1
 62
1
 40
0.000000
 41
0.000000
 66
  1
  0
VERTEX
  8
gg1
 10
0.198200
 20
0.297300
  0
VERTEX
  8
gg1
 10
0.213200
 20
0.297300
  0
SEQEND
  8
gg1
  0
POLYLINE
  8
gg1
 62
1
 40
0.000000
 41
0.000000
 66
  1
  0
VERTEX
  8
gg1
 10
0.205700
 20
0.289800
  0
VERTEX
  8
gg1
 10
0.205700
 20
0.304800
  0
SEQEND
  8
gg1
  0
POLYLINE
  8
gg1
 62
1
 40
0.000000
 41
0.000000
 66
  1
  0
VERTEX
  8
gg1
 10
0.304500
 20
0.453000
  0
VERTEX
  8
gg1
 10
0.319500
 20
0.453000
  0
SEQEND
  8
gg1
  0
POLYLINE
  8
gg1
 62
1
 40
0.000000
 41
0.000000
 66
  1
  0
VERTEX
  8
gg1
 10
0.312000
 20
0.445500
  0
VERTEX
  8
gg1
 10
0.312000
 20
0.460500
  0
SEQEND
  8
gg1
  0
POLYLINE
  8
gg1
 62
1
 40
0.000000
 41
0.000000
 66
  1
  0
VERTEX
  8
gg1
 10
0.337500
 20
0.453000
  0
VERTEX
  8
gg1
 10
0.352500
 20
0.453000
  0
SEQEND
  8
gg1
  0
POLYLINE
  8
gg1
 62
1
 40
0.000000
 41
0.000000
 66
  1
  0
VERTEX
  8
gg1
 10
0.345000
 20
0.445500
  0
VERTEX
  8
gg1
 10
0.345000
 20
0.460500
  0
SEQEND
  8
gg1
  0
POLYLINE
  8
gg1
 62
1
 40
0.000000
 41
0.000000
 66
  1
  0
VERTEX
  8
gg1
 10
0.322500
 20
0.155000
  0
VERTEX
  8
gg1
 10
0.337500
 20
0.155000
  0
SEQEND
  8
gg1
  0
POLYLINE
  8
gg1
 62
1
 40
0.000000
 41
0.000000
 66
  1
  0
VERTEX
  8
gg1
 10
0.330000
 20
0.147500
  0
VERTEX
  8
gg1
 10
0.330000
 20
0.162500
  0
SEQEND
  8
gg1
  0
POLYLINE
  8
gg1
 62
1
 40
0.000000
 41
0.000000
 66
  1
  0
VERTEX
  8
gg1
 10
0.290500
 20
0.155000
  0
VERTEX
  8
gg1
 10
0.305500
 20
0.155000
  0
SEQEND
  8
gg1
  0
POLYLINE
  8
gg1
 62
1
 40
0.000000
 41
0.000000
 66
  1
  0
VERTEX
  8
gg1
 10
0.298000
 20
0.147500
  0
VERTEX
  8
gg1
 10
0.298000
 20
0.162500
  0
SEQEND
  8
gg1
  0
POLYLINE
  8
gg1
 62
1
 40
0.000000
 41
0.000000
 66
  1
  0
VERTEX
  8
gg1
 10
0.272500
 20
0.180000
  0
VERTEX
  8
gg1
 10
0.287500
 20
0.180000
  0
SEQEND
  8
gg1
  0
POLYLINE
  8
gg1
 62
1
 40
0.000000
 41
0.000000
 66
  1
  0
VERTEX
  8
gg1
 10
0.280000
 20
0.172500
  0
VERTEX
  8
gg1
 10
0.280000
 20
0.187500
  0
SEQEND
  8
gg1
  0
POLYLINE
  8
gg1
 62
1
 40
0.000000
 41
0.000000
 66
  1
  0
VERTEX
  8
gg1
 10
0.371500
 20
0.453000
  0
VERTEX
  8
gg1
 10
0.386500
 20
0.453000
  0
SEQEND
  8
gg1
  0
POLYLINE
  8
gg1
 62
1
 40
0.000000
 41
0.000000
 66
  1
  0
VERTEX
  8
gg1
 10
0.379000
 20
0.445500
  0
VERTEX
  8
gg1
 10
0.379000
 20
0.460500
  0
SEQEND
  8
gg1
  0
POLYLINE
  8
gg1
 62
1
 40
0.000000
 41
0.000000
 66
  1
  0
VERTEX
  8
gg1
 10
0.214500
 20
0.421000
  0
VERTEX
  8
gg1
 10
0.229500
 20
0.421000
  0
SEQEND
  8
gg1
  0
POLYLINE
  8
gg1
 62
1
 40
0.000000
 41
0.000000
 66
  1
  0
VERTEX
  8
gg1
 10
0.222000
 20
0.413500
  0
VERTEX
  8
gg1
 10
0.222000
 20
0.428500
  0
SEQEND
  8
gg1
  0
POLYLINE
  8
gg1
 62
1
 40
0.000000
 41
0.000000
 66
  1
  0
VERTEX
  8
gg1
 10
-0.109000
 20
0.119000
  0
VERTEX
  8
gg1
 10
-0.109000
 20
0.079000
  0
VERTEX
  8
gg1
 10
-0.079000
 20
0.079000
  0
VERTEX
  8
gg1
 10
-0.089000
 20
0.099000
  0
VERTEX
  8
gg1
 10
-0.089000
 20
0.109000
  0
VERTEX
  8
gg1
 10
-0.079000
 20
0.119000
  0
VERTEX
  8
gg1
 10
-0.059000
 20
0.119000
  0
VERTEX
  8
gg1
 10
-0.049000
 20
0.109000
  0
VERTEX
  8
gg1
 10
-0.049000
 20
0.089000
  0
VERTEX
  8
gg1
 10
-0.059000
 20
0.079000
  0
SEQEND
  8
gg1
  0
POLYLINE
  8
gg1
 62
1
 40
0.000000
 41
0.000000
 66
  1
  0
VERTEX
  8
gg1
 10
-0.099000
 20
0.139000
  0
VERTEX
  8
gg1
 10
-0.109000
 20
0.149000
  0
VERTEX
  8
gg1
 10
-0.109000
 20
0.169000
  0
VERTEX
  8
gg1
 10
-0.099000
 20
0.179000
  0
VERTEX
  8
gg1
 10
-0.059000
 20
0.179000
  0
VERTEX
  8
gg1
 10
-0.049000
 20
0.169000
  0
VERTEX
  8
gg1
 10
-0.049000
 20
0.149000
  0
VERTEX
  8
gg1
 10
-0.059000
 20
0.139000
  0
VERTEX
  8
gg1
 10
-0.099000
 20
0.139000
  0
SEQEND
  8
gg1
  0
POLYLINE
  8
gg1
 62
1
 40
0.000000
 41
0.000000
 66
  1
  0
VERTEX
  8
gg1
 10
-0.099000
 20
0.199000
  0
VERTEX
  8
gg1
 10
-0.109000
 20
0.209000
  0
VERTEX
  8
gg1
 10
-0.109000
 20
0.229000
  0
VERTEX
  8
gg1
 10
-0.099000
 20
0.239000
  0
VERTEX
  8
gg1
 10
-0.059000
 20
0.239000
  0
VERTEX
  8
gg1
 10
-0.049000
 20
0.229000
  0
VERTEX
  8
gg1
 10
-0.049000
 20
0.209000
  0
VERTEX
  8
gg1
 10
-0.059000
 20
0.199000
  0
VERTEX
  8
gg1
 10
-0.099000
 20
0.199000
  0
SEQEND
  8
gg1
  0
POLYLINE
  8
gg1
 62
1
 40
0.000000
 41
0.000000
 66
  1
  0
VERTEX
  8
gg1
 10
-0.049000
 20
0.259000
  0
VERTEX
  8
gg1
 10
-0.089000
 20
0.259000
  0
VERTEX
  8
gg1
 10
-0.089000
 20
0.269000
  0
VERTEX
  8
gg1
 10
-0.079000
 20
0.279000
  0
VERTEX
  8
gg1
 10
-0.049000
 20
0.279000
  0
VERTEX
  8
gg1
 10
-0.079000
 20
0.279000
  0
VERTEX
  8
gg1
 10
-0.089000
 20
0.289000
  0
VERTEX
  8
gg1
 10
-0.079000
 20
0.299000
  0
VERTEX
  8
gg1
 10
-0.049000
 20
0.299000
  0
SEQEND
  8
gg1
  0
POLYLINE
  8
gg1
 62
1
 40
0.000000
 41
0.000000
 66
  1
  0
VERTEX
  8
gg1
 10
-0.049000
 20
0.319000
  0
VERTEX
  8
gg1
 10
-0.049000
 20
0.339000
  0
VERTEX
  8
gg1
 10
-0.049000
 20
0.329000
  0
VERTEX
  8
gg1
 10
-0.089000
 20
0.329000
  0
VERTEX
  8
gg1
 10
-0.089000
 20
0.319000
  0
SEQEND
  8
gg1
  0
POLYLINE
  8
gg1
 62
1
 40
0.000000
 41
0.000000
 66
  1
  0
VERTEX
  8
gg1
 10
-0.049000
 20
0.369000
  0
VERTEX
  8
gg1
 10
-0.049000
 20
0.388900
  0
VERTEX
  8
gg1
 10
-0.049000
 20
0.379000
  0
VERTEX
  8
gg1
 10
-0.109000
 20
0.379000
  0
VERTEX
  8
gg1
 10
-0.109000
 20
0.369000
  0
SEQEND
  8
gg1
  0
POLYLINE
  8
gg1
 62
1
 40
0.000000
 41
0.000000
 66
  1
  0
VERTEX
  8
gg1
 10
0.169000
 20
-0.041000
  0
VERTEX
  8
gg1
 10
0.149000
 20
-0.051000
  0
VERTEX
  8
gg1
 10
0.129100
 20
-0.071000
  0
VERTEX
  8
gg1
 10
0.129100
 20
-0.091000
  0
VERTEX
  8
gg1
 10
0.139000
 20
-0.101000
  0
VERTEX
  8
gg1
 10
0.159000
 20
-0.101000
  0
VERTEX
  8
gg1
 10
0.169000
 20
-0.091000
  0
VERTEX
  8
gg1
 10
0.169000
 20
-0.081000
  0
VERTEX
  8
gg1
 10
0.159000
 20
-0.071000
  0
VERTEX
  8
gg1
 10
0.129100
 20
-0.071000
  0
SEQEND
  8
gg1
  0
POLYLINE
  8
gg1
 62
1
 40
0.000000
 41
0.000000
 66
  1
  0
VERTEX
  8
gg1
 10
0.189000
 20
-0.051000
  0
VERTEX
  8
gg1
 10
0.199000
 20
-0.041000
  0
VERTEX
  8
gg1
 10
0.219000
 20
-0.041000
  0
VERTEX
  8
gg1
 10
0.229000
 20
-0.051000
  0
VERTEX
  8
gg1
 10
0.229000
 20
-0.091000
  0
VERTEX
  8
gg1
 10
0.219000
 20
-0.101000
  0
VERTEX
  8
gg1
 10
0.199000
 20
-0.101000
  0
VERTEX
  8
gg1
 10
0.189000
 20
-0.091000
  0
VERTEX
  8
gg1
 10
0.189000
 20
-0.051000
  0
SEQEND
  8
gg1
  0
POLYLINE
  8
gg1
 62
1
 40
0.000000
 41
0.000000
 66
  1
  0
VERTEX
  8
gg1
 10
0.249000
 20
-0.051000
  0
VERTEX
  8
gg1
 10
0.259000
 20
-0.041000
  0
VERTEX
  8
gg1
 10
0.279000
 20
-0.041000
  0
VERTEX
  8
gg1
 10
0.289000
 20
-0.051000
  0
VERTEX
  8
gg1
 10
0.289000
 20
-0.091000
  0
VERTEX
  8
gg1
 10
0.279000
 20
-0.101000
  0
VERTEX
  8
gg1
 10
0.259000
 20
-0.101000
  0
VERTEX
  8
gg1
 10
0.249000
 20
-0.091000
  0
VERTEX
  8
gg1
 10
0.249000
 20
-0.051000
  0
SEQEND
  8
gg1
  0
POLYLINE
  8
gg1
 62
1
 40
0.000000
 41
0.000000
 66
  1
  0
VERTEX
  8
gg1
 10
0.309000
 20
-0.101000
  0
VERTEX
  8
gg1
 10
0.309000
 20
-0.061000
  0
VERTEX
  8
gg1
 10
0.319000
 20
-0.061000
  0
VERTEX
  8
gg1
 10
0.329000
 20
-0.071000
  0
VERTEX
  8
gg1
 10
0.329000
 20
-0.101000
  0
VERTEX
  8
gg1
 10
0.329000
 20
-0.071000
  0
VERTEX
  8
gg1
 10
0.339000
 20
-0.061000
  0
VERTEX
  8
gg1
 10
0.349000
 20
-0.071000
  0
VERTEX
  8
gg1
 10
0.349000
 20
-0.101000
  0
SEQEND
  8
gg1
  0
POLYLINE
  8
gg1
 62
1
 40
0.000000
 41
0.000000
 66
  1
  0
VERTEX
  8
gg1
 10
0.369000
 20
-0.101000
  0
VERTEX
  8
gg1
 10
0.389000
 20
-0.101000
  0
VERTEX
  8
gg1
 10
0.379000
 20
-0.101000
  0
VERTEX
  8
gg1
 10
0.379000
 20
-0.061000
  0
VERTEX
  8
gg1
 10
0.369000
 20
-0.061000
  0
SEQEND
  8
gg1
  0
POLYLINE
  8
gg1
 62
1
 40
0.000000
 41
0.000000
 66
  1
  0
VERTEX
  8
gg1
 10
0.419000
 20
-0.101000
  0
VERTEX
  8
gg1
 10
0.439000
 20
-0.101000
  0
VERTEX
  8
gg1
 10
0.429000
 20
-0.101000
  0
VERTEX
  8
gg1
 10
0.429000
 20
-0.041000
  0
VERTEX
  8
gg1
 10
0.419000
 20
-0.041000
  0
SEQEND
  8
gg1
  0
ENDSEC
  0
EOF
